<?xml version="1.0" standalone="no"?>
<!DOCTYPE svg PUBLIC "-//W3C//DTD SVG 20010904//EN"
 "http://www.w3.org/TR/2001/REC-SVG-20010904/DTD/svg10.dtd">
<svg version="1.0" xmlns="http://www.w3.org/2000/svg"
 width="100.000000pt" height="100.000000pt" viewBox="0 0 100.000000 100.000000"
 preserveAspectRatio="xMidYMid meet">
<metadata>
Created by potrace 1.14, written by Peter Selinger 2001-2017
</metadata>
<g transform="translate(0.000000,100.000000) scale(0.100000,-0.100000)"
fill="#000000" stroke="none">
<path d="M267 922 c-37 -40 -28 -42 233 -42 211 0 250 2 250 14 0 8 -10 22
-22 30 -19 13 -59 16 -234 16 -192 0 -212 -2 -227 -18z"/>
<path d="M190 820 c-22 -22 -35 -63 -26 -85 8 -23 664 -23 672 0 9 22 -4 63
-26 85 -19 19 -35 20 -310 20 -275 0 -291 -1 -310 -20z"/>
<path d="M208 675 c-3 -3 -1 -29 3 -58 5 -28 12 -76 15 -106 3 -30 8 -64 10
-75 4 -21 7 -41 25 -191 16 -134 20 -155 36 -170 21 -22 385 -22 406 0 16 15
20 36 36 170 6 44 13 103 16 130 8 66 15 114 20 145 3 14 8 52 11 85 3 33 8
63 11 68 5 8 -581 10 -589 2z m345 -90 c18 -8 43 -31 56 -50 22 -32 28 -35 73
-35 l50 0 -7 -47 c-4 -27 -8 -57 -9 -68 -1 -16 -9 -21 -43 -23 -35 -3 -45 -8
-63 -36 -21 -35 -73 -66 -110 -66 -37 0 -84 28 -109 65 -20 30 -29 35 -62 35
-21 0 -40 3 -42 8 -2 4 -7 35 -11 70 l-7 62 50 0 c45 0 51 3 70 34 37 59 104
80 164 51z"/>
<path d="M464 499 c-26 -29 -26 -109 0 -138 26 -28 50 -26 76 7 17 21 21 36
17 70 -8 73 -54 104 -93 61z"/>
</g>
</svg>
